<?xml version="1.0" encoding="UTF-8"?>
<svg width="512pt" height="512pt" version="1.1" viewBox="0 0 512 512" xmlns="http://www.w3.org/2000/svg">
 <path d="m284.04 263.71h-56.086c-8.5078 0-15.824 4.875-19.109 12.727-3.2773 7.8477-1.5977 16.488 4.3828 22.531l33.898 34.293c2.2617 2.2891 5.2461 3.5898 8.4492 3.6914 0.76953 0.26562 1.7969 0.71875 2.7734 1.4453 1.3672 1.0195 3.1836 2.8867 3.1836 7.3594 0 4.4648-1.8164 6.3398-3.1836 7.3594-1.7461 1.3047-3.6719 1.7188-3.9609 1.7773-0.67188 0.085938-6.3711 1.0234-6.3711 7.3438 0 6.3242 5.6953 7.2617 6.3711 7.3477 0.29297 0.054687 2.2109 0.47266 3.9609 1.7773 1.3672 1.0195 3.1836 2.8945 3.1836 7.3594 0 4.4688-1.8164 6.3398-3.1836 7.3594-1.75 1.3047-3.6719 1.7188-3.9609 1.7773-0.70312 0.09375-6.8086 1.1055-6.3008 8.168 0.53906 7.4844 8.4141 6.5312 8.4141 6.5312 6.875-0.95312 19.887-7.1641 19.887-23.832 0-7.4102-2.5742-12.742-6.0312-16.48 3.457-3.7344 6.0312-9.0664 6.0312-16.477 0-7.9531-2.9648-13.512-6.8047-17.266l29.184-29.523c5.9805-6.0508 7.6602-14.684 4.3828-22.531-3.2852-7.8633-10.605-12.738-19.109-12.738zm4.168 24.82-32.211 32.586-32.211-32.582c-2.543-2.5742-1.5938-5.5312-1.2383-6.375 0.35156-0.84375 1.7852-3.5977 5.4062-3.5977h56.086c3.6211 0 5.0547 2.7539 5.4062 3.5977 0.35156 0.84375 1.3047 3.7969-1.2383 6.3711zm-80.145-73.062c-7.3711 1.0391-8.457-6.3008-8.457-6.3008l0.003906 0.054687c-0.29297-1.8984-3.4336-18.535-23.066-18.535-19.457 0-22.711 16.328-23.059 18.477 0 0-1.0898 7.3359-8.457 6.3008-7.3711-1.0352-6.2461-8.3438-6.2461-8.3438 0.11328-0.80859 1.25-8.1562 6.3125-15.594 4.8672-7.1562 14.281-15.688 31.453-15.688s26.582 8.5312 31.453 15.688c5.0625 7.4375 6.1992 14.785 6.3125 15.594-0.007812 0.003906 1.1172 7.3164-6.25 8.3477zm165.15-8.3438s1.125 7.3125-6.2461 8.3438c-7.3672 1.0352-8.457-6.3008-8.457-6.3008-0.34766-2.1523-3.6055-18.477-23.059-18.477-19.629 0-22.773 16.637-23.066 18.535l0.003906-0.054687s-1.0859 7.3438-8.457 6.3008c-7.3711-1.0352-6.2461-8.3438-6.2461-8.3438 0.11328-0.80859 1.25-8.1562 6.3125-15.594 4.8672-7.1562 14.281-15.688 31.453-15.688s26.582 8.5312 31.453 15.688c5.0586 7.4336 6.1992 14.781 6.3086 15.59zm108.78-139.65c-8.9531-7.7773-20.301-10.379-33.715-7.7305-8.7305 1.7266-16.555 5.375-24.113 8.9141-8.3828 3.9102-16.293 7.6094-24.582 8.2891-3.4219 0.28125-7.4336 0.23438-11.684 0.18359-11.5-0.13281-24.301-0.27734-33.629 5.8516l-0.10156-0.050781c-32.203-16.047-65.234-24.184-98.176-24.184-32.977 0-66.043 8.1562-98.277 24.234-9.3281-6.1289-22.129-5.9844-33.629-5.8516-4.25 0.050782-8.2656 0.097657-11.684-0.18359-8.2891-0.67969-16.199-4.3789-24.582-8.2891-7.5625-3.5391-15.387-7.1875-24.113-8.9141-13.414-2.6484-24.762-0.046875-33.715 7.7305-16.379 14.219-23.395 45.297-20.844 92.371 1.7305 32 7.4805 61.875 10.281 73.199 1.4453 5.8555 2.9961 11.766 4.4922 17.473l0.19922 0.75781c3.6758 14.039 15.633 36.527 33.5 40.93 1.7734 0.43359 3.7773 0.73047 5.9648 0.73047 2.3945 0 5.0078-0.35938 7.75-1.2852 11.305 39.223 35.984 78.449 68.746 108.88 17.461 16.219 36.137 29.051 55.516 38.145 20.598 9.668 40.918 14.566 60.395 14.566 19.496 0 39.832-4.9102 60.453-14.594 12.727-5.9805 25.16-13.574 37.141-22.68l10.777 12.223c1.4062 1.6016 3.4336 2.5156 5.5664 2.5156 2.1289 0 4.1641-0.91016 5.5703-2.5156l53.746-60.957 3.7852-4.2852c0.14453-0.16406 0.27734-0.33203 0.41016-0.51172 1.0391-1.4141 1.9922-2.9062 2.8164-4.4219 3.1289-5.7305 4.7812-12.223 4.7812-18.773 0-9.2461-3.2148-17.758-8.5898-24.469 3.2305-7.6602 5.9766-15.391 8.207-23.117 2.7461 0.92578 5.3555 1.2852 7.75 1.2852 2.1875 0 4.1914-0.29687 5.9648-0.73047 17.867-4.4023 29.824-26.891 33.5-40.93l0.19922-0.75781c1.4961-5.707 3.0469-11.617 4.4922-17.473 2.8008-11.324 8.5508-41.199 10.281-73.199 2.543-47.082-4.4727-78.16-20.852-92.379zm-58.785 283.44c-0.46094 0.85156-0.97656 1.6836-1.5469 2.4727l-51.734 58.676-4.8086-5.4531-9.8203-11.141-35.027-39.73c-0.03125-0.035156-0.066406-0.070312-0.10156-0.11328l-0.57812-0.66016c-1.0664-1.2578-2-2.625-2.7891-4.0703-1.9414-3.5469-2.9648-7.5781-2.9648-11.652 0-13.445 10.93-24.375 24.371-24.375 13.445 0 24.375 10.93 24.375 24.375 0 4.1016 3.3281 7.4258 7.4258 7.4258 4.1016 0 7.4258-3.3242 7.4258-7.4258 0-13.445 10.938-24.375 24.383-24.375 4.6602 0 9.0156 1.3164 12.719 3.5898 4.7188 2.8984 8.3828 7.3633 10.254 12.656 0.90625 2.543 1.3984 5.2773 1.3984 8.1289 0 4.0742-1.0273 8.1055-2.9805 11.672zm64.809-191.87c-1.6758 30.891-7.1875 59.582-9.8711 70.441-1.4219 5.7539-2.9531 11.613-4.4375 17.273l-0.19922 0.75781c-3.3398 12.738-13.25 27.945-22.688 30.27-1.582 0.39063-6.3906 1.5703-13.039-5.7227-2.9219-3.207-5.2109-7.5625-7.4258-14.137-2.9375-8.7383-4.8164-17.66-6.8047-27.105-2.8945-13.73-5.8828-27.934-12.391-41.387-4.1055-8.4922-9.375-16.688-16.566-25.785-2.543-3.2148-7.2148-3.7578-10.43-1.2188-3.2148 2.543-3.7617 7.2148-1.2188 10.43 6.5078 8.2266 11.227 15.551 14.852 23.039 5.7148 11.82 8.3906 24.523 11.223 37.977 1.9922 9.4453 4.0508 19.219 7.2617 28.781 1.8008 5.3516 4.8477 13.188 10.527 19.41 0.28125 0.30859 0.55859 0.60547 0.83984 0.89453-1.8828 7.2695-4.2734 14.555-7.1328 21.801-5.5586-3.0312-11.934-4.75-18.699-4.75-13.07 0-24.672 6.4258-31.805 16.281-7.1328-9.8555-18.73-16.281-31.801-16.281-21.625 0-39.219 17.594-39.219 39.223 0 6.5547 1.6523 13.047 4.7773 18.766 1.2812 2.3438 2.8047 4.5664 4.543 6.6094 0.027344 0.03125 0.050782 0.0625 0.078126 0.09375l0.71094 0.80859c0.035156 0.039063 0.078125 0.085937 0.12109 0.13672l34.504 39.133c-28.734 21.566-59.812 33.613-87.73 33.613-33.895 0-72.457-17.766-105.8-48.742-32.121-29.836-55.953-68.516-65.848-106.69 0.28125-0.29297 0.55859-0.58984 0.83984-0.89453 5.6797-6.2227 8.7227-14.059 10.527-19.41 3.2109-9.5586 5.2695-19.332 7.2617-28.781 2.832-13.449 5.5078-26.152 11.223-37.977 3.625-7.4922 8.3438-14.812 14.852-23.039 2.543-3.2148 1.9961-7.8867-1.2188-10.43-3.2148-2.5391-7.8867-1.9961-10.43 1.2188-7.1953 9.0977-12.461 17.289-16.566 25.785-6.5078 13.449-9.4961 27.652-12.391 41.387-1.9883 9.4453-3.8672 18.367-6.8047 27.105-2.2109 6.5742-4.5 10.93-7.4258 14.137-6.6523 7.2969-11.457 6.1133-13.039 5.7227-9.4375-2.3242-19.348-17.531-22.688-30.27l-0.19922-0.75781c-1.4844-5.6641-3.0156-11.52-4.4375-17.273-2.6836-10.859-8.1953-39.551-9.8711-70.441-2.2188-41.074 3.375-69.613 15.754-80.359 5.3945-4.6836 12.297-6.1133 21.105-4.3789 6.9648 1.3711 13.641 4.4961 20.711 7.7969 9.1953 4.2969 18.703 8.7383 29.648 9.6367 4.1133 0.33984 8.4648 0.29297 13.07 0.23437 10.414-0.12109 22.215-0.26172 27.121 4.9219 2.4922 2.6328 3.543 7.1406 3.1289 13.402-0.26953 4.0898 2.8281 7.6289 6.918 7.8984 4.1016 0.26953 7.6289-2.8281 7.8984-6.918 0.41797-6.3164-0.28516-11.809-2.0781-16.441 29.234-14.102 59.074-21.246 88.746-21.246 29.68 0 59.531 7.1523 88.746 21.246-1.793 4.6289-2.5 10.121-2.0781 16.441 0.26953 4.0898 3.8086 7.1836 7.8984 6.918 4.0898-0.26953 7.1875-3.8086 6.918-7.8984-0.41406-6.2617 0.63672-10.773 3.1289-13.402 4.9062-5.1797 16.711-5.043 27.121-4.9219 4.6094 0.054688 8.9648 0.10156 13.07-0.23437 10.945-0.89453 20.453-5.3398 29.648-9.6367 7.0703-3.3008 13.746-6.4258 20.711-7.7969 8.8047-1.7422 15.715-0.30859 21.105 4.3789 12.371 10.75 17.961 39.289 15.746 80.359z" fill="#6a717f"/>
</svg>
