<svg width="76" height="70" viewBox="0 0 76 70" fill="none" xmlns="http://www.w3.org/2000/svg">
<path d="M42.3791 21.6531C41.9886 21.2585 41.4161 20.9988 40.7704 21H35.2288C34.5812 20.9982 34.0075 21.2597 33.6182 21.6543C33.2263 22.0489 33.0013 22.573 33 23.1258C32.9994 23.5521 33.1398 23.995 33.437 24.3777L35.165 26.6097L35.6615 26.2616L35.165 26.6109C35.5217 27.0717 35.9744 27.4221 36.4734 27.6532C36.9712 27.8848 37.5129 28 38.054 28C38.6139 28 39.1731 27.877 39.6834 27.6305C40.1937 27.3839 40.6545 27.0126 41.0081 26.5249L42.6031 24.3256C42.8727 23.9549 43.0006 23.5322 43 23.1263C42.9981 22.5705 42.7716 22.0465 42.3791 21.6531ZM41.5867 23.6565L39.9917 25.8558C39.7553 26.1811 39.4575 26.4205 39.124 26.5817C38.7911 26.7429 38.4224 26.824 38.0525 26.824C37.6951 26.824 37.3384 26.7476 37.0136 26.5966C36.6889 26.445 36.3948 26.2205 36.1566 25.9119L34.4293 23.6799C34.2895 23.4984 34.2337 23.3127 34.233 23.1253C34.2324 22.8835 34.3365 22.6387 34.5127 22.4626C34.6907 22.2865 34.9233 22.1761 35.2286 22.1749H40.7703C41.0737 22.1767 41.3063 22.2865 41.485 22.4626C41.6618 22.6387 41.7659 22.8829 41.7652 23.1253C41.7646 23.3032 41.7139 23.4803 41.5867 23.6565Z" fill="#6A717F" stroke="#6A717F"/>
<path d="M48.9753 30.3013C48.8828 30.0016 48.5558 29.8299 48.2455 29.9192C47.0581 30.2592 45.8365 30.4275 44.618 30.4275C42.7073 30.4275 40.805 30.0125 39.0578 29.1965L38.7541 29.0553L38.7237 29.045L38.6664 29.0254L38.6109 29.0127L38.556 29.0046L38.4975 29.0023L38.4474 29.004L38.4098 29C38.2427 29 38.0929 29.068 37.9861 29.1769L37.9414 29.1954C36.1936 30.012 34.2911 30.4263 32.3805 30.4263C31.1626 30.4263 29.9411 30.258 28.7537 29.918C28.7012 29.903 28.6421 29.8944 28.5872 29.8944C28.4243 29.8944 28.2781 29.9578 28.1719 30.0604C28.0656 30.1629 28 30.3053 28 30.4615C28 30.7185 28.1784 30.9334 28.4213 31.0032L28.4207 31.0055C29.7168 31.3766 31.0511 31.5605 32.3806 31.5605C32.8371 31.5605 33.2924 31.5345 33.7465 31.4919V36.4952C33.7465 37.7365 34.2698 38.866 35.1136 39.6797C35.9561 40.4946 37.1258 41 38.4111 41C39.6976 41 40.8678 40.4946 41.7104 39.6797C42.5536 38.866 43.0769 37.7365 43.0763 36.4952V31.4774C43.5889 31.5327 44.1039 31.5604 44.62 31.5604C45.9507 31.5604 47.2839 31.376 48.5805 31.0054C48.8902 30.9167 49.0678 30.6015 48.9753 30.3013ZM41.9011 36.4951C41.9011 37.4264 41.5114 38.2666 40.8789 38.878C40.2452 39.4889 39.3763 39.8652 38.4103 39.8652C37.446 39.8652 36.5771 39.4889 35.9429 38.8774C35.3091 38.2648 34.9207 37.4263 34.9201 36.4945V31.3304C35.9112 31.1529 36.8857 30.8729 37.8244 30.4885V36.7487C37.8244 37.0617 38.0869 37.3158 38.4116 37.3158C38.7356 37.3158 38.9987 37.0622 38.9987 36.7487V30.4113C39.9356 30.8101 40.9095 31.1046 41.9012 31.2959L41.9011 36.4951Z" fill="#6A717F" stroke="#6A717F"/>
<path d="M29.501 14.5C30.2939 14.5001 31.0352 14.7589 31.5801 15.1953L31.7764 15.3682C32.2141 15.7929 32.5 16.3613 32.5 17C32.5 17.7297 32.1265 18.367 31.5801 18.8037C31.0356 19.2405 30.2946 19.4999 29.501 19.5C28.8058 19.5 28.1508 19.302 27.6328 18.96L27.4199 18.8047C26.8715 18.3666 26.5 17.7284 26.5 17C26.5 16.2701 26.8733 15.632 27.4199 15.1953C27.9655 14.759 28.7071 14.5 29.501 14.5ZM29.499 16.5967C29.2898 16.5973 29.124 16.6633 29.0127 16.752C28.9027 16.8417 28.8703 16.9286 28.8701 16.999C28.8701 17.0709 28.903 17.1586 29.0127 17.2471C29.1266 17.3367 29.2931 17.4023 29.499 17.4023C29.7076 17.4023 29.8743 17.3363 29.9863 17.2471C30.0962 17.1579 30.1279 17.0699 30.1279 16.999C30.1278 16.927 30.0948 16.8396 29.9844 16.751H29.9834C29.8695 16.6621 29.7038 16.5967 29.499 16.5967Z" fill="#6A717F" stroke="#6A717F"/>
<path d="M47 14.5C47.6885 14.5 48.3174 14.781 48.7676 15.2314L48.9287 15.4082C49.2853 15.8399 49.5 16.3974 49.5 17C49.5 17.6889 49.2185 18.3184 48.7676 18.7686C48.3171 19.2188 47.6882 19.5 47 19.5C46.3111 19.5 45.6816 19.2185 45.2314 18.7676C44.7814 18.3167 44.5 17.6879 44.5 17C44.5 16.3111 44.7815 15.6816 45.2324 15.2314C45.6833 14.7814 46.3121 14.5 47 14.5Z" fill="#6A717F" stroke="#6A717F"/>
<path d="M49.8301 4.5C54.1907 4.50016 57.9286 7.1518 59.5264 10.9277C60.0431 12.1489 60.3767 13.4337 60.6982 14.6777C61.023 15.9341 61.3366 17.149 61.8154 18.2939L62.2783 19.4033C63.5514 22.4472 65.8709 24.9362 68.8164 26.4219L70.6553 27.3486L70.9844 27.5283C71.6241 27.9103 72.1558 28.4161 72.5625 28.9961L72.7549 29.292L72.7559 29.293C73.2399 30.0986 73.5 31.0245 73.5 31.9717C73.4999 32.75 73.3225 33.5408 72.9531 34.2803C72.494 35.1992 71.8011 35.9199 70.9902 36.4043C70.1804 36.8883 69.2552 37.14 68.3203 37.1406C67.1439 37.1412 65.9445 36.7382 64.9629 35.8965V35.8955C62.6509 33.915 60.9413 31.3242 60.0303 28.4189C59.8082 27.7112 58.8596 27.7575 58.6826 28.4346C55.7223 39.7589 54.2217 51.4101 54.2217 63.1084C54.2217 63.4054 54.2223 63.5201 54.2236 63.5537C54.2362 63.8654 54.1166 64.1519 53.8477 64.3281C53.6241 64.4745 53.3607 64.5 53.166 64.5C52.8967 64.4999 52.704 64.3501 52.6055 64.2588C52.5436 64.2014 52.4885 64.1373 52.4434 64.0811C52.3318 64.0545 52.2506 63.9956 52.2051 63.9502C52.1461 63.8912 52.1159 63.8312 52.1045 63.8066C52.0801 63.7542 52.0707 63.7091 52.0684 63.6982C52.0618 63.6671 52.0602 63.6412 52.0596 63.6348C52.0568 63.6039 52.0561 63.5655 52.0557 63.5361C52.0546 63.4637 52.0536 63.3322 52.0537 63.1084L52.0596 61.8066C52.1853 48.3539 54.2595 34.9742 58.2324 22.083C58.254 22.0076 58.2834 21.9317 58.3252 21.8574L58.332 21.8457L58.3398 21.834L58.3516 21.8145H58.3525C58.3747 21.7777 58.4011 21.7369 58.4326 21.6973L58.4482 21.6777L58.4658 21.6592L58.4883 21.6367C58.5119 21.6113 58.5446 21.5774 58.585 21.5439L58.6045 21.5283L58.625 21.5146L58.6445 21.501L58.7705 21.4219L58.7871 21.4141L58.8037 21.4072L58.8457 21.3887L58.8994 21.3662L58.9688 21.3418C58.9761 21.3398 58.9837 21.3386 58.9912 21.3369C59.0168 21.3306 59.0381 21.326 59.0479 21.3242C59.0557 21.3228 59.0564 21.3227 59.0586 21.3223L59.0684 21.3203L59.0781 21.3193C59.2323 21.2914 59.3991 21.2927 59.5654 21.3389L59.5664 21.3379C59.571 21.339 59.5755 21.3405 59.5801 21.3418C59.5833 21.3428 59.5866 21.3437 59.5898 21.3447H59.5889L59.6426 21.3633L59.6768 21.3779H59.6758L59.7822 21.4248L59.8018 21.4346L59.8203 21.4463L59.875 21.4824L59.8857 21.4893C59.9359 21.5234 59.983 21.5621 60.0264 21.6045L60.043 21.6201L60.0508 21.6279L60.0801 21.6582L60.0928 21.6709L60.1035 21.6836C60.1449 21.7321 60.1765 21.7826 60.1885 21.8018L60.207 21.8301L60.2178 21.8467L60.2266 21.8643C60.2573 21.9213 60.2872 21.9892 60.3105 22.0674H60.3115L62.0996 27.7715L62.2549 28.2402C63.0747 30.5679 64.4953 32.642 66.374 34.251H66.373C66.9499 34.7441 67.6358 34.974 68.3203 34.9746C68.8657 34.9746 69.4081 34.8262 69.8779 34.5449C70.3468 34.2643 70.7444 33.8534 71.0156 33.3115C71.2323 32.8776 71.3339 32.4218 71.334 31.9717C71.334 31.4224 71.1826 30.8807 70.9004 30.4121V30.4131C70.6176 29.9452 70.208 29.5513 69.6816 29.2852L67.8418 28.3584V28.3574C64.4347 26.6394 61.7526 23.761 60.2812 20.2402L60.2754 20.2275C60.1122 20.619 59.7266 20.8945 59.2754 20.8945C58.6774 20.8945 58.1914 20.4098 58.1914 19.8105V15.0254L58.1807 14.5947C58.0785 12.5996 57.2794 10.7929 56.0195 9.40625L55.7432 9.11621C54.228 7.60161 52.1415 6.66757 49.8311 6.66699H26.1719C24.0061 6.66699 22.0369 7.48818 20.5508 8.83887L20.2598 9.11621C18.7454 10.6313 17.8112 12.7172 17.8105 15.0273V19.8115C17.8105 20.4094 17.3266 20.8953 16.7275 20.8955C16.2766 20.8955 15.8888 20.62 15.7256 20.2275L15.7207 20.2412C14.2482 23.7619 11.567 26.6411 8.16016 28.3594H8.15918L6.32031 29.2852C5.79436 29.5499 5.38442 29.9432 5.10156 30.4121C4.81937 30.8807 4.66797 31.4224 4.66797 31.9717C4.66802 32.4213 4.77003 32.8771 4.98633 33.3115L5.09375 33.5088C5.35764 33.953 5.71268 34.2981 6.12207 34.5449H6.12305C6.59207 34.8259 7.13384 34.9735 7.67969 34.9736C8.36445 34.9731 9.04856 34.7444 9.62695 34.251C11.6308 32.5348 13.1123 30.2899 13.9014 27.7715L15.6914 22.0566C15.8272 21.6222 16.2103 21.3399 16.6299 21.3018L16.6523 21.2998H16.7188C16.7212 21.2997 16.7312 21.299 16.7383 21.2988C16.7562 21.2984 16.7938 21.2971 16.8379 21.3018H16.8369C17.2579 21.3447 17.6352 21.6345 17.7656 22.0684L18.0127 22.8916C21.9468 35.9437 23.9385 49.486 23.9385 63.085C23.9385 63.3174 23.9388 63.4516 23.9375 63.5244C23.937 63.5507 23.9358 63.5953 23.9316 63.6318C23.9313 63.635 23.9266 63.6797 23.9102 63.7314C23.9051 63.7472 23.8963 63.7753 23.8799 63.8076C23.8661 63.8346 23.8308 63.8975 23.7627 63.957C23.7156 63.9981 23.6448 64.0388 23.5576 64.0615C23.5114 64.121 23.4552 64.1897 23.3906 64.251C23.2933 64.3433 23.099 64.499 22.8252 64.499C22.6213 64.499 22.3567 64.467 22.1338 64.3135C21.8727 64.1333 21.7543 63.8483 21.7676 63.5381L21.7705 63.085C21.7705 51.3971 20.2716 39.752 17.3135 28.4336C17.1366 27.7581 16.1892 27.7124 15.9678 28.4189C15.0568 31.3244 13.348 33.9148 11.0342 35.8955L11.0352 35.8965C10.1144 36.6855 9.00315 37.0889 7.89844 37.1357L7.67773 37.1406C6.74263 37.1406 5.81787 36.8881 5.00781 36.4033C4.19771 35.9187 3.50277 35.1997 3.04395 34.2803V34.2793C2.67649 33.5405 2.50004 32.7485 2.5 31.9717C2.5 31.0257 2.7599 30.0979 3.24512 29.293C3.7308 28.4873 4.4455 27.803 5.34473 27.3506L7.18457 26.4238C10.1311 24.9383 12.4485 22.4492 13.7217 19.4053L14.1865 18.2939C14.6656 17.1487 14.9798 15.9335 15.3047 14.6768C15.6264 13.4323 15.9585 12.1464 16.4756 10.9248C18.0736 7.14969 21.8118 4.5002 26.1709 4.5H49.8301Z" fill="#6A717F" stroke="#6A717F"/>
<path d="M32.7937 11.0419C31.4355 9.7783 29.5618 9 27.5 9C25.4382 9 23.5638 9.77833 22.2063 11.0419C20.8469 12.3043 20 14.0617 20 16.0003C20 17.9395 20.8469 19.6969 22.2063 20.9587C23.5639 22.2223 25.4382 23 27.5 23C29.5618 23 31.4362 22.2217 32.7937 20.9587C34.1519 19.6963 35 17.9389 35 16.0003C35 14.0623 34.152 12.3037 32.7937 11.0419ZM31.9855 20.1396C30.8405 21.2041 29.2573 21.8659 27.4993 21.8659C25.7426 21.8659 24.1581 21.2041 23.0132 20.1396C21.8688 19.0733 21.1686 17.6153 21.1674 16.0004C21.1674 14.3866 21.8682 12.928 23.0132 11.8613C24.1582 10.7968 25.7414 10.135 27.4993 10.135C29.2573 10.135 30.8405 10.7967 31.9855 11.8613C33.1298 12.927 33.8301 14.3856 33.8313 16.0004C33.8307 17.6149 33.1299 19.0728 31.9855 20.1396Z" fill="#6A717F"/>
</svg>
