<?xml version="1.0" encoding="UTF-8"?>
<svg width="512pt" height="512pt" version="1.1" viewBox="0 0 512 512" xmlns="http://www.w3.org/2000/svg">
 <path d="m384 85.34c-36.48 0-58.66 7.0391-71.461 13-16.441-8.1016-35.199-13-56.539-13s-40.102 4.8984-56.539 13c-12.801-5.9609-34.98-13-71.461-13-64 0-106.66 170.66-106.66 213.32 0 17.719 28.16 33.922 66.98 40.539 13.66 47.781 78.078 84.262 157.02 87.461v-91.301c-12.602-7.8984-32-22.18-32-36.699 0-21.32 42.66-21.32 42.66-21.32s42.66 0 42.66 21.32c0 14.52-19.398 28.801-32 36.699v91.301c78.941-3.1992 143.36-39.68 157.02-87.461 38.82-6.6211 66.98-22.82 66.98-40.539 0-42.66-42.66-213.32-106.66-213.32m-295.46 210.56c-10.68-2.5586-19-5.5586-24.539-7.8984 5.3398-59.102 46.941-151.46 65.059-160 11.52 0 20.281 1.2812 28.16 2.3398-44.801 49.281-62.5 126.52-68.68 165.56m103.46-39.898c-11.781 0-21.34-9.5586-21.34-21.34 0-11.52 9.6016-21.32 21.34-21.32 5.6602 0 11.082 2.2383 15.078 6.2422 4 4 6.2617 9.418 6.2617 15.078 0 11.961-9.6016 21.34-21.34 21.34m128 0c-11.781 0-21.34-9.5586-21.34-21.34 0-11.52 9.6016-21.32 21.34-21.32 5.6602 0 11.082 2.2383 15.078 6.2422 4 4 6.2617 9.418 6.2617 15.078 0 11.961-9.6016 21.34-21.34 21.34m103.46 39.898c-6.1797-39.039-23.879-116.28-68.68-165.56 7.8789-1.0586 16.641-2.3398 28.16-2.3398 18.121 8.5391 59.719 100.9 65.059 160-5.3398 2.3398-13.66 5.3398-24.539 7.8984z" fill="#6b7280"/>
</svg>
